<svg id="ebb0d592-e9e7-4277-8c45-110b35e0c1a2" data-name="Слой 1" xmlns="http://www.w3.org/2000/svg" viewBox="0 0 1294 292"><defs><style>.a191e5a9-488b-4d49-839b-0897a08e8d0d{fill:#fff;stroke:#000;stroke-miterlimit:10;stroke-width:13px;}.be87227a-8ad3-48d0-9c92-694e4e002319{fill:#ffd6d8;}.a0e12754-eb97-481a-be8a-daa98b8c88cc{fill:#000233;}</style></defs><rect class="a191e5a9-488b-4d49-839b-0897a08e8d0d" x="6.5" y="6.5" width="1281" height="279" rx="139.5"/><path d="M177.2,98.5V236.7H161.3V98.5Z" transform="translate(-53 -29)"/><path d="M236.9,239.1a41.5,41.5,0,0,1-17.9-3.7,30.2,30.2,0,0,1-12.8-10.9,30.7,30.7,0,0,1-4.7-17.2c0-6,1.2-10.8,3.5-14.5a25.3,25.3,0,0,1,9.4-8.7,49.1,49.1,0,0,1,13-4.8,137.9,137.9,0,0,1,14.3-2.5l15.4-1.9c3.9-.4,6.8-1.1,8.6-2.2s2.8-2.8,2.8-5.4v-.5c0-6.7-1.9-11.8-5.5-15.5s-9.1-5.6-16.4-5.6-13.6,1.7-17.9,5-7.3,6.9-9.1,10.7L204.5,156a37.2,37.2,0,0,1,10.8-14.8,40.9,40.9,0,0,1,14.9-7.4,62,62,0,0,1,15.9-2.1,65.1,65.1,0,0,1,11.5,1.2,39,39,0,0,1,12.6,4.8,28.5,28.5,0,0,1,10.1,11c2.7,4.9,4.1,11.5,4.1,19.7v68.3H268.5V222.6h-.9a24.8,24.8,0,0,1-5.4,7.3,31.5,31.5,0,0,1-10,6.5A38.8,38.8,0,0,1,236.9,239.1Zm2.4-14.3c6.3,0,11.6-1.2,16-3.7a25.8,25.8,0,0,0,9.8-9.6,24.8,24.8,0,0,0,3.4-12.3V184.6c-.7.8-2.2,1.5-4.5,2.2a78.9,78.9,0,0,1-7.8,1.7l-8.6,1.2-6.7.8a64.7,64.7,0,0,0-11.5,2.6,20.2,20.2,0,0,0-8.7,5.4q-3.3,3.5-3.3,9.6c0,5.5,2.1,9.7,6.2,12.5S233,224.8,239.3,224.8Z" transform="translate(-53 -29)"/><path d="M329.4,174.3v62.4H313.5V133h15.4v16.2h1.4a30,30,0,0,1,11-12.7q7.5-4.8,19.2-4.8a37.6,37.6,0,0,1,18.4,4.3,29,29,0,0,1,12.3,12.9c2.9,5.8,4.4,13.1,4.4,21.9v65.9h-16V171.9c0-8.1-2.1-14.5-6.3-19s-10-6.9-17.4-6.9a27.7,27.7,0,0,0-13.6,3.3,23.2,23.2,0,0,0-9.4,9.7A31.5,31.5,0,0,0,329.4,174.3Z" transform="translate(-53 -29)"/><path d="M469.8,133v13.5H416.1V133Zm-38.1-24.8h16V207c0,4.5.6,7.9,1.9,10.1a10,10,0,0,0,5.2,4.4,18.3,18.3,0,0,0,6.6,1.1,24.6,24.6,0,0,0,4.3-.3l2.7-.5,3.3,14.3a32.5,32.5,0,0,1-4.5,1.3,38,38,0,0,1-7.4.6,30.9,30.9,0,0,1-13.2-2.9,25.1,25.1,0,0,1-10.6-8.8c-2.9-4-4.3-9-4.3-15Z" transform="translate(-53 -29)"/><path d="M524.3,239.1a41.9,41.9,0,0,1-17.9-3.7,30,30,0,0,1-12.7-10.9c-3.2-4.7-4.8-10.5-4.8-17.2s1.2-10.8,3.6-14.5a24.3,24.3,0,0,1,9.3-8.7,50.5,50.5,0,0,1,13-4.8,139.8,139.8,0,0,1,14.4-2.5l15.3-1.9c3.9-.4,6.8-1.1,8.6-2.2s2.8-2.8,2.8-5.4v-.5c0-6.7-1.8-11.8-5.5-15.5s-9-5.6-16.4-5.6-13.5,1.7-17.9,5-7.3,6.9-9.1,10.7L491.9,156a37.2,37.2,0,0,1,10.8-14.8,41.7,41.7,0,0,1,14.9-7.4,63.2,63.2,0,0,1,15.9-2.1,65.1,65.1,0,0,1,11.5,1.2,39,39,0,0,1,12.6,4.8,28,28,0,0,1,10.2,11c2.7,4.9,4,11.5,4,19.7v68.3H555.9V222.6h-.8a29,29,0,0,1-5.4,7.3,32,32,0,0,1-10.1,6.5A38.8,38.8,0,0,1,524.3,239.1Zm2.4-14.3c6.3,0,11.6-1.2,16-3.7a25.8,25.8,0,0,0,9.8-9.6,23.8,23.8,0,0,0,3.4-12.3V184.6c-.7.8-2.2,1.5-4.4,2.2s-4.9,1.2-7.9,1.7l-8.5,1.2-6.7.8a65.8,65.8,0,0,0-11.6,2.6,20.2,20.2,0,0,0-8.7,5.4c-2.1,2.3-3.2,5.5-3.2,9.6s2,9.7,6.1,12.5S520.4,224.8,526.7,224.8Z" transform="translate(-53 -29)"/><path d="M616.9,174.3v62.4H601V133h15.3v16.2h1.4a29.6,29.6,0,0,1,11.1-12.7c4.9-3.2,11.3-4.8,19.1-4.8s13.2,1.4,18.4,4.3a29,29,0,0,1,12.3,12.9c2.9,5.8,4.4,13.1,4.4,21.9v65.9H667.1V171.9c0-8.1-2.1-14.5-6.4-19s-10-6.9-17.4-6.9a27.7,27.7,0,0,0-13.6,3.3,23.2,23.2,0,0,0-9.4,9.7C618,163.2,616.9,168.3,616.9,174.3Z" transform="translate(-53 -29)"/><path d="M742.6,239.1a41.4,41.4,0,0,1-17.8-3.7A30.2,30.2,0,0,1,712,224.5a30.7,30.7,0,0,1-4.7-17.2c0-6,1.2-10.8,3.5-14.5a24.6,24.6,0,0,1,9.4-8.7,47.9,47.9,0,0,1,13-4.8,137.9,137.9,0,0,1,14.3-2.5l15.3-1.9c4-.4,6.9-1.1,8.7-2.2s2.7-2.8,2.7-5.4v-.5c0-6.7-1.8-11.8-5.4-15.5s-9.1-5.6-16.4-5.6-13.6,1.7-17.9,5-7.4,6.9-9.1,10.7L710.3,156a37.2,37.2,0,0,1,10.8-14.8,41.2,41.2,0,0,1,14.8-7.4,63.2,63.2,0,0,1,15.9-2.1,64.2,64.2,0,0,1,11.5,1.2,37.3,37.3,0,0,1,12.6,4.8,28,28,0,0,1,10.2,11c2.7,4.9,4,11.5,4,19.7v68.3H774.2V222.6h-.8a29,29,0,0,1-5.4,7.3,32.7,32.7,0,0,1-10,6.5A39,39,0,0,1,742.6,239.1Zm2.5-14.3c6.3,0,11.6-1.2,15.9-3.7a25.4,25.4,0,0,0,9.9-9.6,24.7,24.7,0,0,0,3.3-12.3V184.6c-.7.8-2.1,1.5-4.4,2.2s-4.9,1.2-7.8,1.7l-8.6,1.2-6.7.8a65.8,65.8,0,0,0-11.6,2.6,19.8,19.8,0,0,0-8.6,5.4q-3.3,3.5-3.3,9.6c0,5.5,2.1,9.7,6.2,12.5S738.7,224.8,745.1,224.8Z" transform="translate(-53 -29)"/><path class="be87227a-8ad3-48d0-9c92-694e4e002319" d="M911.6,211.3a28.2,28.2,0,0,1-14.9-4,31,31,0,0,1-10.8-10.8,29.8,29.8,0,0,1,0-29.8A29.9,29.9,0,0,1,896.7,156a29.1,29.1,0,0,1,29.8,0,29.9,29.9,0,0,1,10.8,10.7,29.8,29.8,0,0,1,0,29.8,31,31,0,0,1-10.8,10.8A28,28,0,0,1,911.6,211.3Z" transform="translate(-53 -29)"/><path d="M1067.2,236.7l-10.4-10.3,42.8-42.7H988.8V168.8h110.8l-42.8-42.6,10.4-10.4,60.4,60.4Z" transform="translate(-53 -29)"/><path class="a0e12754-eb97-481a-be8a-daa98b8c88cc" d="M1199.8,211.3a28.5,28.5,0,0,1-14.9-4,29.9,29.9,0,0,1-10.7-10.8,29.1,29.1,0,0,1,0-29.8,28.9,28.9,0,0,1,10.7-10.7,29.3,29.3,0,0,1,29.9,0,30.5,30.5,0,0,1,10.7,10.7,29.8,29.8,0,0,1,0,29.8,31.6,31.6,0,0,1-10.7,10.8A28.6,28.6,0,0,1,1199.8,211.3Z" transform="translate(-53 -29)"/></svg>